<svg width="25" height="25" viewBox="0 0 25 25" fill="none" xmlns="http://www.w3.org/2000/svg">
<circle cx="12.5" cy="12.5" r="12.5" fill="white"/>
<path d="M9.46467 17.4972H6.87318V9.15365H9.46467V17.4972ZM8.16753 8.01551C7.33903 8.01551 6.66675 7.32928 6.66675 6.50078C6.66675 5.67228 7.33903 5 8.16753 5C8.99603 5 9.66831 5.67228 9.66831 6.50078C9.66831 7.32928 8.99603 8.01551 8.16753 8.01551ZM19.164 17.4972H16.578V13.4356C16.578 12.4676 16.5585 11.2263 15.2307 11.2263C13.8833 11.2263 13.6769 12.278 13.6769 13.3659V17.4972H11.0882V9.15365H13.5737V10.2918H13.61C13.9559 9.63624 14.8011 8.94443 16.062 8.94443C18.6842 8.94443 19.1667 10.6712 19.1667 12.914V17.4972H19.164Z" fill="#FF9A3D"/>
</svg>
