<svg xmlns="http://www.w3.org/2000/svg" xmlns:xlink="http://www.w3.org/1999/xlink">

<symbol id="logo" viewBox="0 0 36 32" width="36" height="32" >
<path d="M34.2077 0.466637H1.74087C0.779299 0.466637 0 1.24602 0 2.2075V22.5756C0 23.5371 0.779299 24.3165 1.74087 24.3165H13.8832V28.2613H9.15827C8.27034 28.2613 7.54796 28.9837 7.54796 29.8716C7.54796 30.7595 8.27034 31.4819 9.15827 31.4819H26.7903C27.6782 31.4819 28.4006 30.7595 28.4006 29.8716C28.4006 28.9837 27.6782 28.2613 26.7903 28.2613H22.0653V24.3165H34.2077C35.1693 24.3165 35.9486 23.5371 35.9486 22.5756V2.2075C35.9486 1.24602 35.1693 0.466637 34.2077 0.466637ZM33.3373 21.7052H2.6113V3.07794H33.3373V21.7052Z" fill="#515151"/>
<path d="M8.23352 13.3751L13.7246 15.9286C13.8665 15.9943 14.0176 16.0276 14.1739 16.0276C14.3774 16.0276 14.5757 15.9698 14.7481 15.8602C15.0569 15.6628 15.2413 15.3266 15.2413 14.9606V14.9325C15.2413 14.519 14.9989 14.1391 14.6236 13.9647L11.1893 12.3692L14.6237 10.7733C14.9989 10.5989 15.2413 10.219 15.2413 9.8056V9.77784C15.2413 9.4113 15.0568 9.07505 14.7482 8.87833C14.5774 8.76918 14.3785 8.71156 14.1732 8.71156C14.0184 8.71156 13.8631 8.74559 13.724 8.81018L8.23343 11.3633C7.85845 11.5379 7.61621 11.9177 7.61621 12.331V12.4074C7.61612 12.8202 7.85828 13.1999 8.23352 13.3751Z" fill="#515151"/>
<path d="M15.2902 18.5761C15.4905 18.8502 15.8126 19.0138 16.152 19.0138H16.1794C16.6453 19.0138 17.0535 18.7156 17.1954 18.2726L20.8126 7.06487C20.9164 6.74133 20.8588 6.38437 20.6585 6.10966C20.4582 5.83556 20.1361 5.67183 19.7967 5.67183H19.7693C19.3033 5.67183 18.8947 5.97004 18.7528 6.41309L15.1351 17.6217C15.0322 17.9455 15.0902 18.3022 15.2902 18.5761Z" fill="#515151"/>
<path d="M20.7072 9.80552C20.7072 10.2186 20.9494 10.5985 21.3248 10.7736L24.7591 12.3691L21.3248 13.9646C20.9496 14.1391 20.7072 14.5189 20.7072 14.9325V14.9605C20.7072 15.3265 20.8914 15.6628 21.2006 15.8602C21.3724 15.9697 21.5709 16.0276 21.7747 16.0276C21.9306 16.0276 22.0817 15.9942 22.2246 15.9281L27.7154 13.3747C28.0903 13.1999 28.3324 12.8201 28.3324 12.4072V12.3308C28.3324 11.9175 28.0902 11.5377 27.715 11.3632L22.2243 8.80983C22.0858 8.7455 21.9307 8.71138 21.7759 8.71138C21.5706 8.71138 21.3716 8.769 21.201 8.87781C20.8917 9.07487 20.7072 9.41112 20.7072 9.77766V9.80552Z" fill="#515151"/>
</symbol>

<symbol id="backend" viewBox="0 0 83 83" width="83" height="83" >
<path d="M79.2563 13.6172H62.25C61.5781 13.6172 61.0342 14.1611 61.0342 14.833C61.0342 15.5049 61.5781 16.0488 62.25 16.0488H79.2563C79.9801 16.0488 80.5684 16.6371 80.5684 17.3609V64.1801C80.5684 64.9039 79.9801 65.4922 79.2563 65.4922H3.74371C3.01992 65.4922 2.43164 64.9039 2.43164 64.1801V17.3609C2.43164 16.6371 3.01992 16.0488 3.74371 16.0488H30.4563V18.4805H6.0791C5.40723 18.4805 4.86328 19.0244 4.86328 19.6963V51.8212C4.86328 52.4924 5.40723 53.037 6.0791 53.037C6.75097 53.037 7.29492 52.4924 7.29492 51.8212V20.9121H30.4563V27.4345L25.2511 29.9212C24.8357 30.12 24.5596 30.5494 24.5596 31.0186V50.8466C24.5596 51.3152 24.8287 51.742 25.2511 51.944L40.9757 59.4568C41.3164 59.617 41.7007 59.6088 42.0243 59.4568L50.8643 55.2331C51.4704 54.9437 51.7268 54.2174 51.4374 53.612C51.148 53.006 50.4211 52.7495 49.8157 53.0389L42.7158 56.4312V39.2976L56.0088 32.9468V50.0804L54.2028 50.9429C53.5968 51.2323 53.3403 51.9586 53.6297 52.564C53.9191 53.17 54.6454 53.4264 55.2508 53.137L57.7489 51.944C58.1713 51.742 58.4404 51.3152 58.4404 50.8466V31.0186C58.4404 30.5551 58.1707 30.1232 57.7489 29.9212L52.5437 27.4345V20.9121H75.7051V60.6289H7.29492V57.0087C7.29492 56.3368 6.75097 55.7929 6.0791 55.7929C5.40723 55.7929 4.86328 56.3368 4.86328 57.0087V61.8447C4.86328 62.5166 5.40723 63.0605 6.0791 63.0605H76.9209C77.5928 63.0605 78.1367 62.5166 78.1367 61.8447V19.6963C78.1367 19.0244 77.5928 18.4805 76.9209 18.4805H52.5437V16.0488H57.0625C57.7344 16.0488 58.2783 15.5049 58.2783 14.833C58.2783 14.1611 57.7344 13.6172 57.0625 13.6172H52.5437V11.1855H63.4456C64.1174 11.1855 64.6614 10.6416 64.6614 9.96973V7.08595C66.0767 6.58379 67.093 5.23246 67.093 3.64746C67.093 1.63629 65.4567 0 63.4456 0C61.4344 0 59.7981 1.63629 59.7981 3.64746C59.7981 5.23246 60.8144 6.58379 62.2297 7.08595V8.75391H51.3279C50.656 8.75391 50.1121 9.29786 50.1121 9.96973V13.6172H42.7158V7.08595C44.1311 6.58379 45.1475 5.23246 45.1475 3.64746C45.1475 1.63629 43.5112 0 41.5 0C39.4888 0 37.8525 1.63629 37.8525 3.64746C37.8525 5.23246 38.8689 6.58379 40.2842 7.08595V13.6172H32.8879V9.96973C32.8879 9.29786 32.344 8.75391 31.6721 8.75391H20.7703V7.08595C22.1856 6.58379 23.2019 5.23246 23.2019 3.64746C23.2019 1.63629 21.5656 0 19.5544 0C17.5433 0 15.907 1.63629 15.907 3.64746C15.907 5.23246 16.9233 6.58379 18.3386 7.08595V9.96973C18.3386 10.6416 18.8826 11.1855 19.5544 11.1855H30.4563V13.6172H3.74371C1.67935 13.6172 0 15.2965 0 17.3609V64.1801C0 66.2445 1.67935 67.9238 3.74371 67.9238H30.103C29.6325 72.3837 26.6835 74.9883 25.7539 75.7051H20.5879C18.5767 75.7051 16.9404 77.3414 16.9404 79.3525C16.9404 81.3637 18.5767 83 20.5879 83H62.4121C64.4233 83 66.0596 81.3637 66.0596 79.3525C66.0596 77.3414 64.4233 75.7051 62.4121 75.7051H57.2493C56.3317 74.9908 53.3726 72.3628 52.8983 67.9238H79.2563C81.3206 67.9238 83 66.2445 83 64.1801V17.3609C83 15.2965 81.3206 13.6172 79.2563 13.6172ZM63.4456 2.43164C64.1162 2.43164 64.6614 2.97686 64.6614 3.64746C64.6614 4.31806 64.1162 4.86328 63.4456 4.86328C62.775 4.86328 62.2297 4.31806 62.2297 3.64746C62.2297 2.97686 62.775 2.43164 63.4456 2.43164ZM41.5 2.43164C42.1706 2.43164 42.7158 2.97686 42.7158 3.64746C42.7158 4.31806 42.1706 4.86328 41.5 4.86328C40.8294 4.86328 40.2842 4.31806 40.2842 3.64746C40.2842 2.97686 40.8294 2.43164 41.5 2.43164ZM19.5544 2.43164C20.225 2.43164 20.7703 2.97686 20.7703 3.64746C20.7703 4.31806 20.225 4.86328 19.5544 4.86328C18.8838 4.86328 18.3386 4.31806 18.3386 3.64746C18.3386 2.97686 18.8838 2.43164 19.5544 2.43164ZM32.8879 20.9121H40.2842V22.739L32.8879 26.2731V20.9121ZM54.4042 31.0186L41.5 37.1832L28.5958 31.0186L41.5 24.8534L54.4042 31.0186ZM26.9912 32.9468L40.2842 39.2976V56.4312L26.9912 50.0804V32.9468ZM50.1121 26.2731L42.7158 22.739V20.9121H50.1121V26.2731ZM50.1121 16.0488V18.4805H42.7158V16.0488H50.1121ZM40.2842 16.0488V18.4805H32.8879V16.0488H40.2842ZM63.6279 79.3525C63.6279 80.0231 63.0827 80.5684 62.4121 80.5684H20.5879C19.9173 80.5684 19.3721 80.0231 19.3721 79.3525C19.3721 78.6819 19.9173 78.1367 20.5879 78.1367H62.4121C63.0827 78.1367 63.6279 78.6819 63.6279 79.3525ZM53.7621 75.7051H29.2379C30.6634 74.0403 32.2446 71.4459 32.5479 67.9238H50.4521C50.7554 71.4459 52.3366 74.0403 53.7621 75.7051Z" fill="#515151"/>
</symbol>

<symbol id="frontend" width="111" height="83" viewBox="0 0 111 83" >
<path d="M47.0866 65.7428H50.5468V68.9871H47.0866V65.7428Z" fill="#515151"/>
<path d="M54.0069 65.7428H57.467V68.9871H54.0069V65.7428Z" fill="#515151"/>
<path d="M60.9272 65.7428H64.3873V68.9871H60.9272V65.7428Z" fill="#515151"/>
<path d="M5.56476 8.65039H9.02491V11.8947H5.56476V8.65039Z" fill="#515151"/>
<path d="M15.9453 15.5707H33.246V18.815H15.9453V15.5707Z" fill="#515151"/>
<path d="M5.56476 15.5707H9.02491V18.815H5.56476V15.5707Z" fill="#515151"/>
<path d="M36.7061 15.5707H43.6264V18.815H36.7061V15.5707Z" fill="#515151"/>
<path d="M28.0558 22.491H43.6265V25.7353H28.0558V22.491Z" fill="#515151"/>
<path d="M15.9453 22.491H24.5956V25.7353H15.9453V22.491Z" fill="#515151"/>
<path d="M5.56476 22.491H9.02491V25.7353H5.56476V22.491Z" fill="#515151"/>
<path d="M15.9453 8.65039H29.7858V11.8947H15.9453V8.65039Z" fill="#515151"/>
<path d="M15.9453 29.4113H33.246V32.6556H15.9453V29.4113Z" fill="#515151"/>
<path d="M5.56476 29.4113H9.02491V32.6556H5.56476V29.4113Z" fill="#515151"/>
<path d="M36.7061 29.4113H43.6264V32.6556H36.7061V29.4113Z" fill="#515151"/>
<path d="M15.9453 36.3315H22.8655V39.5759H15.9453V36.3315Z" fill="#515151"/>
<path d="M5.56476 36.3315H9.02491V39.5759H5.56476V36.3315Z" fill="#515151"/>
<path d="M26.3257 36.3315H36.7061V39.5759H26.3257V36.3315Z" fill="#515151"/>
<path d="M15.9453 43.2518H26.3257V46.4961H15.9453V43.2518Z" fill="#515151"/>
<path d="M5.56476 43.2518H9.02491V46.4961H5.56476V43.2518Z" fill="#515151"/>
<path d="M29.7858 43.2518H43.6264V46.4961H29.7858V43.2518Z" fill="#515151"/>
<path d="M110.883 55.1465V0H59.1971V13.6248H107.639V51.9022H62.4414V17.0849H59.1971V27.6812H52.061V0H0.374573V55.1465H52.061V30.9255H59.1971V55.1465H92.0685V72.6631H63.7162L61.9861 74.3932H49.4886L47.7585 72.6631H19.1896V58.6067H15.9452V72.6631H12.4851V79.3676C12.4851 81.2157 14.0971 82.8277 15.9452 82.8277H95.5287C97.3776 82.8277 98.773 81.2157 98.773 79.3676V72.6631H95.3128V55.1465H110.883ZM62.4414 10.3804V3.24431H107.639V10.3804H62.4414ZM3.61888 3.24431H10.755V51.9022H3.61888V3.24431ZM48.8167 51.9022H13.9993V3.24431H48.8167V51.9022ZM95.5287 79.3676C95.5287 79.4266 95.5885 79.5834 95.5287 79.5834H15.9452C15.8862 79.5834 15.7294 79.4266 15.7294 79.3676V75.9074H46.4155L48.1455 77.6375H63.3292L65.0593 75.9074H95.5287V79.3676Z" fill="#515151"/>
<path d="M67.8475 5.19019H71.3076V8.4345H67.8475V5.19019Z" fill="#515151"/>
<path d="M74.7678 5.19019H78.2279V8.4345H74.7678V5.19019Z" fill="#515151"/>
<path d="M81.6881 5.19019H85.1483V8.4345H81.6881V5.19019Z" fill="#515151"/>
<path d="M66.1174 30.9255H103.963V17.3008H66.1174V30.9255ZM69.3617 20.5451H100.719V27.6812H69.3617V20.5451Z" fill="#515151"/>
<path d="M66.1174 48.2262H79.7422V34.6014H66.1174V48.2262ZM69.3617 37.8458H76.4979V44.9819H69.3617V37.8458Z" fill="#515151"/>
<path d="M83.4182 34.6014H104.179V37.8458H83.4182V34.6014Z" fill="#515151"/>
<path d="M83.4182 39.7917H104.179V43.0361H83.4182V39.7917Z" fill="#515151"/>
<path d="M83.4182 44.9819H104.179V48.2262H83.4182V44.9819Z" fill="#515151"/>
</symbol>

<symbol id="uxui" width="83" height="83" viewBox="0 0 83 83" >
<path d="M63.8062 63.6333H61.0395V69.1666H36.1395V71.9333H61.0395V76.0833C61.0395 78.3751 59.1813 80.2333 56.8895 80.2333H26.4561C24.9735 80.2313 23.6037 79.441 22.8593 78.1583L20.4635 79.5416C21.7036 81.6781 23.986 82.9952 26.4561 82.9999H56.8895C60.7078 82.9952 63.8014 79.9016 63.8062 76.0833V63.6333Z" fill="#515151"/>
<path d="M40.2896 74.7H43.0562V77.4666H40.2896V74.7Z" fill="#515151"/>
<path d="M48.5895 37.35V34.5833H44.3693C43.6797 25.7558 36.6671 18.7432 27.8395 18.0536V13.8333H25.0729V18.0536C24.1407 18.1252 23.216 18.2697 22.3062 18.4852V11.0667H44.4395V8.3H22.3062V6.91667C22.3062 4.62485 24.1644 2.76667 26.4562 2.76667H56.8895C57.9 2.76667 58.8761 3.13547 59.6339 3.80417L61.4644 1.72917C60.2013 0.61399 58.5741 -0.0006749 56.8895 5.56102e-07H26.4562C22.6379 0.00472875 19.5443 3.09832 19.5395 6.91667V19.3667C13.3105 21.976 9.06525 27.8504 8.54312 34.5833H4.32288V37.35H8.5465C9.19899 46.1944 16.2285 53.2286 25.0729 53.8865V58.1H27.8395V53.8865C36.684 53.2286 43.7134 46.1944 44.3659 37.35H48.5895ZM25.0729 48.4167V51.1198C23.1431 50.9462 21.2653 50.4039 19.5395 49.5231V47.0333C19.5395 43.2136 22.6365 40.1167 26.4562 40.1167C30.2759 40.1167 33.3729 43.2136 33.3729 47.0333V49.5231C31.6478 50.4052 29.7693 50.9483 27.8395 51.1239V48.4167H25.0729ZM22.3062 33.2C22.3062 30.9082 24.1644 29.05 26.4562 29.05C28.748 29.05 30.6062 30.9082 30.6062 33.2C30.6062 35.4918 28.748 37.35 26.4562 37.35C24.1644 37.35 22.3062 35.4918 22.3062 33.2ZM36.6002 47.3103C36.4509 47.4481 36.2915 47.5588 36.1395 47.6865V47.0333C36.1362 43.4196 34.1206 40.1086 30.9122 38.4456C33.1344 36.5739 33.9497 33.5127 32.9534 30.7839C31.9571 28.0544 29.3613 26.2388 26.4562 26.2388C23.5511 26.2388 20.9553 28.0544 19.959 30.7839C18.9627 33.5127 19.778 36.5739 22.0002 38.4456C18.7918 40.1086 16.7763 43.4196 16.7729 47.0333V47.6933C16.6195 47.5676 16.4601 47.4494 16.3122 47.317C13.4456 44.7462 11.659 41.1852 11.3132 37.35H14.0062V34.5833H11.3098C11.9859 27.2803 17.7698 21.4964 25.0729 20.8202V23.5167H27.8395V20.8202C35.1426 21.4964 40.9265 27.2803 41.6026 34.5833H38.9062V37.35H41.5993C41.2534 41.1852 39.4668 44.7462 36.6002 47.317V47.3103Z" fill="#515151"/>
<path d="M79.0228 24.9C79.7868 24.9 80.4062 24.2806 80.4062 23.5167V6.91666C80.4062 6.15272 79.7868 5.53333 79.0228 5.53333H48.5895C47.8256 5.53333 47.2062 6.15272 47.2062 6.91666V23.5167C47.2062 24.2806 47.8256 24.9 48.5895 24.9H79.0228ZM49.9728 8.29999H77.6395V22.1333H49.9728V8.29999Z" fill="#515151"/>
<path d="M52.7395 11.0667H58.2728V13.8333H52.7395V11.0667Z" fill="#515151"/>
<path d="M61.0396 11.0667H74.8729V13.8333H61.0396V11.0667Z" fill="#515151"/>
<path d="M52.7395 16.6H74.8728V19.3666H52.7395V16.6Z" fill="#515151"/>
<path d="M78.7783 27.6666C77.7071 27.6687 76.6736 28.0618 75.8732 28.773L63.8062 39.4115V27.6666H61.0395V41.5H61.4394L53.5697 48.4443C48.4497 48.7375 44.4456 52.9712 44.4395 58.1V60.5404C44.4449 61.9129 43.6688 63.1699 42.4381 63.7785C41.8633 64.0649 41.5614 64.7093 41.7087 65.3341C41.8559 65.9589 42.4138 66.4006 43.0562 66.4H52.7395C57.8682 66.3939 62.102 62.3898 62.3952 57.2698L82.0746 34.9676C83.2168 33.6721 83.4944 31.8274 82.7831 30.2529C82.0725 28.6785 80.5055 27.6666 78.7783 27.6666ZM52.7395 63.6333H46.4132C46.9353 62.6863 47.2082 61.6218 47.2062 60.5404V58.1C47.2109 54.4964 49.9776 51.4981 53.5697 51.2056L59.6339 57.2698C59.3421 60.8619 56.3431 63.6292 52.7395 63.6333ZM79.9996 33.1378L60.9774 54.697L56.1425 49.8635L77.7017 30.8399C78.3467 30.2739 79.32 30.3056 79.9273 30.9122C80.5338 31.5194 80.5656 32.4928 79.9996 33.1378Z" fill="#515151"/>
<path d="M1.55618 76.0834H31.9895C32.7535 76.0834 33.3728 75.464 33.3728 74.7V63.6334C33.3728 62.8694 32.7535 62.25 31.9895 62.25H22.3062V55.3334H19.5395V62.25H1.55618C0.792244 62.25 0.172852 62.8694 0.172852 63.6334V74.7C0.172852 75.464 0.792244 76.0834 1.55618 76.0834ZM2.93952 65.0167H30.6062V73.3167H2.93952V65.0167Z" fill="#515151"/>
<path d="M5.70618 67.7833H12.6228V70.55H5.70618V67.7833Z" fill="#515151"/>
<path d="M15.3895 67.7833H27.8395V70.55H15.3895V67.7833Z" fill="#515151"/>
<path d="M1.55618 19.3667H15.3895C16.1535 19.3667 16.7729 18.7473 16.7729 17.9833V6.91666C16.7729 6.15272 16.1535 5.53333 15.3895 5.53333H1.55618C0.792244 5.53333 0.172852 6.15272 0.172852 6.91666V17.9833C0.172852 18.7473 0.792244 19.3667 1.55618 19.3667ZM2.93952 8.29999H14.0062V16.6H2.93952V8.29999Z" fill="#515151"/>
<path d="M5.70618 11.0667H11.2395V13.8333H5.70618V11.0667Z" fill="#515151"/>
</symbol>

<symbol id="mail" width="68" height="68" viewBox="0 0 68 68" >
<g clip-path="url(#clip0)">
<path d="M67.811 35.1339L60.0506 14.1575C59.7688 13.3953 59.2068 12.7886 58.4684 12.4491C57.7301 12.1096 56.9039 12.0778 56.1417 12.3599L18.3011 26.3591C17.5389 26.6411 16.9322 27.203 16.5926 27.9412C16.2531 28.6795 16.2214 29.5058 16.5034 30.2679L24.2637 51.2443C24.5456 52.0065 25.1075 52.6132 25.8459 52.9528C26.251 53.1391 26.6825 53.2326 27.1155 53.2326C27.4717 53.2326 27.8287 53.1694 28.1728 53.0421L66.0135 39.0428H66.0136C67.5865 38.4607 68.3929 36.7072 67.811 35.1339ZM54.0617 16.3732L42.3241 33.1533L22.4916 28.0526L54.0617 16.3732ZM26.5684 48.7067L19.8371 30.5113L35.4269 34.5212L26.5684 48.7067ZM29.8647 49.1723L38.5177 35.316L42.5873 36.3628C42.7136 36.3948 42.8414 36.4115 42.9661 36.4115C43.4559 36.4115 43.9245 36.1742 44.2135 35.762L46.6218 32.3163L62.2099 37.2062L29.8647 49.1723ZM48.4519 29.7021L57.6775 16.5107L64.4115 34.7085L48.4519 29.7021Z" fill="white"/>
<path d="M17.7224 51.6607C17.431 50.8727 16.5555 50.4706 15.7681 50.7618L10.0356 52.8826C9.24765 53.1742 8.84536 54.0492 9.13675 54.837C9.36386 55.451 9.94504 55.8307 10.5636 55.8307C10.7387 55.8307 10.9172 55.8002 11.0912 55.7358L16.8234 53.615C17.6116 53.3238 18.0139 52.4487 17.7224 51.6607Z" fill="white"/>
<path d="M9.96404 37.5388C9.67238 36.7508 8.79728 36.3488 8.00957 36.6399L4.47105 37.9491C3.68307 38.2407 3.28078 39.1156 3.57217 39.9035C3.79928 40.5174 4.3806 40.8972 4.99898 40.8972C5.17416 40.8972 5.35266 40.8667 5.52664 40.8023L9.06516 39.4931C9.85314 39.2019 10.2556 38.3268 9.96404 37.5388Z" fill="white"/>
<path d="M5.57751 49.0619C5.28585 48.2739 4.41075 47.8716 3.62304 48.163L0.993751 49.1357C0.205775 49.4274 -0.196514 50.3023 0.0948764 51.0902C0.321986 51.704 0.903173 52.0839 1.52168 52.0839C1.69686 52.0839 1.87536 52.0533 2.04935 51.9889L4.67863 51.0162C5.46674 50.7248 5.86903 49.8498 5.57751 49.0619Z" fill="white"/>
</g>
<!-- <defs>
<clipPath id="clip0">
<rect width="68" height="68" fill="white"/>
</clipPath>
</defs> -->
</symbol>
<symbol id="twit" width="25" height="25" viewBox="0 0 25 25" fill="none" xmlns="http://www.w3.org/2000/svg">
<circle cx="12.5" cy="12.5" r="12.5" fill="white"/>
<path d="M18.8086 9.78197C18.8184 9.91868 18.8184 10.0554 18.8184 10.1921C18.8184 14.362 15.6446 19.1667 9.84375 19.1667C8.05664 19.1667 6.39649 18.6491 5 17.7507C5.25392 17.78 5.49803 17.7898 5.76172 17.7898C7.2363 17.7898 8.59375 17.2918 9.67773 16.4422C8.29101 16.4128 7.1289 15.5046 6.7285 14.2546C6.92383 14.2839 7.11913 14.3035 7.32423 14.3035C7.60742 14.3035 7.89065 14.2644 8.1543 14.1961C6.70899 13.9031 5.62497 12.6335 5.62497 11.1003V11.0613C6.04488 11.2957 6.5332 11.4421 7.05074 11.4617C6.20113 10.8952 5.64451 9.92845 5.64451 8.83469C5.64451 8.24877 5.80073 7.71166 6.07419 7.24291C7.62693 9.15697 9.96093 10.4069 12.5781 10.5437C12.5293 10.3093 12.5 10.0652 12.5 9.82105C12.5 8.08275 13.9062 6.66675 15.6543 6.66675C16.5625 6.66675 17.3828 7.04761 17.959 7.66284C18.6718 7.52613 19.3554 7.26244 19.9609 6.90112C19.7265 7.63356 19.2285 8.2488 18.5742 8.6394C19.209 8.57107 19.8242 8.39525 20.3906 8.15113C19.961 8.77611 19.4238 9.33273 18.8086 9.78197Z" fill="#FF9A3D"/>
</symbol>

<symbol id="fb" width="25" height="25" viewBox="0 0 25 25" fill="none" xmlns="http://www.w3.org/2000/svg">
<circle cx="12.5" cy="12.5" r="12.5" fill="white"/>
<path d="M10.83 20.8334V13.379H8.33325V10.4167H10.83V8.08276C10.83 5.54696 12.3795 4.16675 14.6418 4.16675C15.7258 4.16675 16.6568 4.24813 16.927 4.28394V6.93368H15.358C14.1275 6.93368 13.8899 7.51961 13.8899 8.37573V10.4167H16.6666L16.2857 13.379H13.8899V20.8334" fill="#FF9A3D"/>
</symbol>

<symbol id="git" width="26" height="25" viewBox="0 0 26 25" fill="none" xmlns="http://www.w3.org/2000/svg">
<path d="M8.57617 20.13C8.57617 20.2334 8.45727 20.3161 8.30736 20.3161C8.13677 20.3316 8.01787 20.2489 8.01787 20.13C8.01787 20.0266 8.13677 19.9439 8.28668 19.9439C8.44176 19.9284 8.57617 20.0111 8.57617 20.13ZM6.96846 19.8973C6.93228 20.0007 7.03567 20.1196 7.19075 20.1506C7.32516 20.2023 7.48024 20.1506 7.51126 20.0473C7.54227 19.9439 7.44405 19.825 7.28897 19.7784C7.15456 19.7423 7.00465 19.7939 6.96846 19.8973ZM9.25337 19.8095C9.10346 19.8456 9.00007 19.9439 9.01558 20.0628C9.03109 20.1662 9.16549 20.2334 9.32058 20.1972C9.47049 20.161 9.57388 20.0628 9.55837 19.9594C9.54286 19.8612 9.40329 19.7939 9.25337 19.8095ZM12.6549 0C5.48482 0 0 5.44346 0 12.6135C0 18.3465 3.6083 23.2523 8.76227 24.9789C9.42397 25.0978 9.65659 24.6894 9.65659 24.3534C9.65659 24.0329 9.64108 22.265 9.64108 21.1794C9.64108 21.1794 6.02245 21.9548 5.26253 19.6389C5.26253 19.6389 4.67321 18.1345 3.82542 17.7468C3.82542 17.7468 2.64161 16.9352 3.90813 16.9507C3.90813 16.9507 5.19533 17.0541 5.90355 18.2845C7.03567 20.2799 8.93287 19.7061 9.6721 19.3649C9.791 18.5378 10.127 17.964 10.4992 17.6228C7.60948 17.3023 4.69389 16.8835 4.69389 11.9105C4.69389 10.4889 5.08677 9.77549 5.91389 8.86566C5.77948 8.52965 5.34008 7.14422 6.04829 5.35558C7.12872 5.01957 9.61524 6.75134 9.61524 6.75134C10.6491 6.46185 11.7606 6.31194 12.8617 6.31194C13.9628 6.31194 15.0742 6.46185 16.1081 6.75134C16.1081 6.75134 18.5946 5.0144 19.6751 5.35558C20.3833 7.14939 19.9439 8.52965 19.8095 8.86566C20.6366 9.78066 21.1432 10.494 21.1432 11.9105C21.1432 16.899 18.0984 17.2971 15.2086 17.6228C15.6842 18.0312 16.0874 18.8066 16.0874 20.0214C16.0874 21.7635 16.0719 23.9192 16.0719 24.3431C16.0719 24.6791 16.3097 25.0875 16.9662 24.9686C22.1357 23.2523 25.6406 18.3465 25.6406 12.6135C25.6406 5.44346 19.825 0 12.6549 0ZM5.02474 17.8295C4.95753 17.8812 4.97304 18.0001 5.06092 18.0984C5.14364 18.1811 5.26253 18.2173 5.32974 18.1501C5.39694 18.0984 5.38143 17.9795 5.29355 17.8812C5.21084 17.7985 5.09194 17.7623 5.02474 17.8295ZM4.46643 17.4108C4.43025 17.478 4.48194 17.5607 4.58533 17.6124C4.66804 17.6641 4.77143 17.6486 4.80762 17.5762C4.84381 17.509 4.79211 17.4263 4.68872 17.3746C4.58533 17.3436 4.50262 17.3591 4.46643 17.4108ZM6.14135 19.2512C6.05863 19.3184 6.08965 19.4734 6.20855 19.5717C6.32745 19.6906 6.47736 19.7061 6.54456 19.6234C6.61177 19.5562 6.58075 19.4011 6.47736 19.3028C6.36363 19.1839 6.20855 19.1684 6.14135 19.2512ZM5.55202 18.4912C5.46931 18.5429 5.46931 18.6773 5.55202 18.7962C5.63474 18.9151 5.77431 18.9668 5.84152 18.9151C5.92423 18.8479 5.92423 18.7135 5.84152 18.5946C5.76914 18.4757 5.63474 18.424 5.55202 18.4912Z" fill="white"/>
</symbol>

<symbol id="in" width="25" height="25" viewBox="0 0 25 25" fill="none" xmlns="http://www.w3.org/2000/svg">
<circle cx="12.5" cy="12.5" r="12.5" fill="white"/>
<path d="M9.46467 17.4972H6.87318V9.15365H9.46467V17.4972ZM8.16753 8.01551C7.33903 8.01551 6.66675 7.32928 6.66675 6.50078C6.66675 5.67228 7.33903 5 8.16753 5C8.99603 5 9.66831 5.67228 9.66831 6.50078C9.66831 7.32928 8.99603 8.01551 8.16753 8.01551ZM19.164 17.4972H16.578V13.4356C16.578 12.4676 16.5585 11.2263 15.2307 11.2263C13.8833 11.2263 13.6769 12.278 13.6769 13.3659V17.4972H11.0882V9.15365H13.5737V10.2918H13.61C13.9559 9.63624 14.8011 8.94443 16.062 8.94443C18.6842 8.94443 19.1667 10.6712 19.1667 12.914V17.4972H19.164Z" fill="#FF9A3D"/>
</symbol>


</svg>